<svg xmlns="http://www.w3.org/2000/svg" width="512" height="512" viewBox="0 0 512 512" version="1.1">
	<path d="M 239.500 13.138 C 235.650 14.250, 227.550 15.526, 221.500 15.972 C 215.450 16.418, 209.722 17.102, 208.770 17.491 C 207.753 17.907, 205.284 17.352, 202.770 16.141 C 197.486 13.596, 185.362 11.522, 180.786 12.380 C 174.638 13.534, 169 21.218, 169 28.443 C 169 30.265, 168.366 32.281, 167.592 32.924 C 166.818 33.566, 165.447 35.646, 164.545 37.546 C 163.411 39.936, 162.227 41.003, 160.703 41.010 C 157.175 41.025, 148.301 45.611, 146.510 48.344 C 145.607 49.722, 143.618 51.286, 142.090 51.819 C 138.020 53.237, 132.595 58.357, 128.223 64.905 L 124.380 70.660 120.890 69.451 C 118.970 68.787, 114.272 67.945, 110.450 67.581 C 104.817 67.044, 102.837 67.258, 100 68.709 C 96.156 70.676, 94.999 74.261, 97.001 78.002 C 97.955 79.785, 97.455 81.230, 93.693 87.551 C 90.949 92.162, 88.811 97.282, 88.081 100.993 C 86.802 107.493, 87.138 107.242, 78.061 108.479 C 68.135 109.832, 55.748 119.582, 58.991 123.490 C 59.645 124.278, 61.041 125.196, 62.092 125.529 C 63.826 126.080, 63.596 126.711, 59.621 132.318 C 50.649 144.975, 43.595 162.532, 41.328 177.852 C 38.900 194.258, 41.316 203.821, 49.650 210.787 C 53.128 213.694, 54 215.068, 54 217.639 C 54 221.280, 57.551 224.760, 62.218 225.694 L 64.990 226.248 62.040 229.607 C 57.849 234.380, 56.170 240.421, 58.078 243.863 C 59.962 247.259, 65.448 249.996, 70.377 249.998 L 74.255 250 70.041 254.572 C 65.193 259.831, 61 268.551, 61 273.374 C 61 276.635, 63.440 280, 65.806 280 C 66.437 280, 67.675 281.101, 68.557 282.446 C 70.591 285.551, 69.770 287.066, 63.469 291.829 C 60.388 294.157, 57.558 297.503, 55.762 300.941 C 54.201 303.929, 50.888 308.550, 48.400 311.210 C 42.775 317.224, 42.565 321.261, 47.711 324.487 C 49.478 325.594, 50.940 327.030, 50.961 327.677 C 50.983 328.325, 52.541 330.125, 54.424 331.677 L 57.848 334.500 56.327 341 C 53.243 354.170, 56.425 366.775, 64.654 374.001 C 70.866 379.455, 83.128 379.298, 94.257 373.623 C 102.838 369.246, 104.795 369.678, 109.387 376.964 L 112.832 382.428 109.916 385.749 C 108.312 387.575, 107 389.713, 107 390.500 C 107 393.132, 113.044 398.851, 117.708 400.633 C 120.247 401.602, 123.488 403.481, 124.912 404.808 C 126.335 406.135, 130.266 408.532, 133.647 410.134 C 142.958 414.547, 143.332 415.575, 136.330 417.505 C 127.909 419.827, 87.901 432.609, 78.500 435.980 C 66.257 440.372, 19.582 460.185, 9.214 465.393 L 0 470.020 0 491.012 L 0 512.004 256.250 511.752 L 512.500 511.500 512.534 490 C 512.567 468.623, 512.566 468.607, 512.262 487.250 C 512.093 497.563, 511.698 506, 511.382 506 C 511.067 506, 509.614 505.168, 508.154 504.152 C 506.694 503.135, 492.881 494.633, 477.457 485.258 C 462.033 475.883, 442.445 463.777, 433.928 458.356 C 425.411 452.935, 413.280 445.647, 406.971 442.160 C 400.662 438.674, 391.225 433.460, 386 430.575 C 380.775 427.689, 372.225 422.720, 367 419.533 C 355.726 412.656, 351.246 410.421, 350.409 411.258 C 349.563 412.103, 349.581 446.317, 350.430 452.500 C 350.808 455.250, 350.735 459.292, 350.267 461.482 L 349.418 465.464 338.959 468.671 C 333.207 470.435, 327.744 471.906, 326.821 471.939 C 325.897 471.973, 321.172 474.616, 316.321 477.813 C 304.012 485.925, 304.149 485.868, 307.636 481.462 C 312.411 475.430, 315.634 472.446, 325.473 464.948 C 335.979 456.941, 342.848 451.036, 341.680 451.015 C 340.531 450.994, 334.279 455.336, 313.157 470.826 C 286.140 490.640, 278.016 494.315, 269.927 490.383 C 266 488.473, 264.827 486.492, 264.753 481.645 C 264.669 476.062, 268.371 469.454, 274.256 464.685 C 280.285 459.797, 293.031 451.400, 299.764 447.878 C 302.919 446.228, 306.484 444.034, 307.686 443.001 C 308.888 441.969, 314.476 438.284, 320.104 434.812 C 326.285 430.999, 333.485 425.415, 338.291 420.707 C 346.469 412.694, 348.300 409.020, 341 415.268 C 336.356 419.243, 319.578 427.791, 310.317 430.900 C 297.462 435.216, 275.152 435.975, 264.801 432.448 C 258.503 430.302, 252 423.678, 252 419.409 C 252 413.843, 254.038 410.004, 260.216 403.931 C 262.145 402.035, 265.911 400.444, 273.216 398.438 C 283.412 395.640, 288.073 395.332, 294.281 397.046 C 297.202 397.853, 297.325 397.803, 295.608 396.504 C 294.568 395.716, 293.287 394.929, 292.763 394.754 C 292.239 394.580, 292.774 392.802, 293.953 390.805 C 295.680 387.878, 296.038 385.883, 295.798 380.522 L 295.500 373.871 285.182 373.568 C 279.508 373.401, 274.386 372.786, 273.800 372.200 C 271.922 370.322, 273.835 367.965, 279.238 365.497 C 290.791 360.221, 305.221 358.365, 309.793 361.568 C 314.217 364.666, 319.166 361.315, 315.928 357.414 C 315.017 356.315, 313.586 356.089, 310.487 356.554 C 305.747 357.265, 301.692 355.502, 294.140 349.447 C 290.348 346.406, 289.306 346.036, 286.140 346.607 C 284.138 346.968, 281.649 347.704, 280.608 348.243 C 279.236 348.953, 276.666 348.574, 271.248 346.861 L 263.779 344.500 264.419 338 C 265.182 330.240, 267.346 326.848, 272.276 325.682 C 275.835 324.840, 277.677 322.239, 281.113 313.203 C 281.888 311.165, 282.445 310.939, 285.198 311.544 C 288.298 312.224, 291.831 314.801, 291.175 315.904 C 290.996 316.204, 291.324 316.608, 291.902 316.801 C 294.372 317.624, 301.469 307.387, 300.386 304.563 C 299.670 302.696, 298.013 302.482, 297.970 304.250 C 297.953 304.944, 297.486 304.721, 296.920 303.750 C 294.551 299.682, 285.616 302.975, 282.459 309.079 C 281.628 310.685, 280.494 312, 279.939 312 C 279.283 312, 279.307 311.295, 280.008 309.984 C 280.875 308.365, 280.483 306.702, 278.015 301.532 C 274.651 294.483, 271.255 291.443, 265.354 290.200 C 261.730 289.436, 261.512 289.182, 261.693 285.944 C 262.601 269.757, 260.883 253.820, 257.416 246.282 C 256.602 244.512, 255.247 240.012, 254.405 236.282 C 249.528 214.685, 246.684 208.476, 240.312 205.516 C 238.215 204.542, 235.825 203.208, 235 202.552 C 232.719 200.737, 219.952 198.114, 205.766 196.546 C 192.484 195.077, 189.793 194.364, 192.114 192.929 C 192.845 192.478, 193.128 191.795, 192.745 191.412 C 192.362 191.029, 191.431 191.228, 190.676 191.854 C 188.981 193.261, 187.125 191.320, 184.600 185.500 C 183.646 183.300, 182.453 180.600, 181.950 179.500 C 178.200 171.305, 178.059 159.482, 181.573 148.080 C 187.342 129.365, 198.451 113.968, 210 108.683 C 217.330 105.328, 238.642 105.957, 257.693 110.090 C 264.512 111.570, 271.765 111.137, 284.478 108.492 C 300.148 105.232, 302.069 105.304, 309.404 109.426 C 318.335 114.446, 322.050 117.578, 329.758 126.584 C 338.883 137.248, 342.608 142.775, 344.577 148.575 C 345.470 151.206, 347.327 155.142, 348.704 157.323 C 351.659 162.003, 353.676 167.642, 359.115 186.427 C 364.358 204.536, 369.665 217.751, 372.251 219.134 C 373.682 219.900, 373.918 220.433, 373.061 220.962 C 372.138 221.533, 372.185 222.042, 373.259 223.117 C 374.033 223.891, 374.677 225.193, 374.691 226.012 C 374.704 226.830, 375.636 230.650, 376.762 234.500 C 379.535 243.982, 381.153 263.436, 379.965 273 C 377.665 291.499, 375.742 309.851, 375.693 313.750 C 375.664 316.087, 375.323 318, 374.937 318 C 373.575 318, 373.369 322.621, 374.676 323.842 C 375.404 324.522, 376 324.709, 376 324.258 C 376 323.806, 377.192 323.338, 378.649 323.217 C 381.767 322.959, 384 321.332, 384 319.319 C 384 318.487, 384.486 318.183, 385.155 318.595 C 385.870 319.038, 386.038 318.870, 385.595 318.155 C 385.203 317.520, 384.121 316.986, 383.191 316.970 C 381.645 316.942, 381.650 316.852, 383.258 315.915 C 384.225 315.352, 385.374 315.113, 385.812 315.384 C 386.250 315.655, 387.107 314.556, 387.716 312.942 C 388.365 311.221, 388.446 309.776, 387.912 309.445 C 386.530 308.591, 386.821 306.717, 388.250 307.265 C 389.025 307.563, 389.558 306.794, 389.652 305.242 C 389.736 303.865, 390.206 302.460, 390.697 302.119 C 391.188 301.779, 391.701 298.368, 391.837 294.541 C 391.974 290.713, 392.198 287.469, 392.336 287.330 C 392.475 287.192, 393.443 288.668, 394.489 290.610 C 396.116 293.631, 396.182 294.272, 394.945 295.055 C 393.949 295.686, 393.888 295.974, 394.750 295.985 C 395.438 295.993, 396 296.810, 396 297.800 C 396 298.790, 395.438 300.167, 394.750 300.859 C 393.747 301.870, 393.895 301.971, 395.500 301.372 C 397.277 300.709, 397.347 300.814, 396.128 302.313 C 394.964 303.743, 394.964 304.002, 396.128 304.015 C 397.098 304.026, 397.161 304.246, 396.342 304.768 C 395.705 305.173, 394.884 307.304, 394.517 309.502 C 394.052 312.291, 394.152 313.066, 394.849 312.064 C 395.690 310.855, 396.104 310.841, 397.473 311.978 C 398.916 313.175, 399.044 313.028, 398.615 310.663 C 398.268 308.747, 398.554 308, 399.634 308 C 401.148 308, 400.867 310.450, 398.946 314 C 398.248 315.290, 398.042 315.259, 397.470 313.776 C 396.266 310.651, 394.063 314.361, 391.862 323.219 C 390.730 327.773, 389.178 332.489, 388.413 333.698 C 387.648 334.907, 387.376 336.114, 387.809 336.382 C 389.331 337.323, 391.082 335.293, 392.917 330.460 C 393.936 327.774, 395.385 325.374, 396.135 325.126 C 397.282 324.747, 397.285 324.935, 396.151 326.309 C 394.868 327.863, 392.997 333.782, 392.772 337 C 392.559 340.041, 384.205 351.588, 380.222 354.347 C 376.757 356.748, 375.496 357.091, 372.190 356.532 C 368.667 355.937, 368.204 356.105, 367.647 358.185 C 367.306 359.458, 367.021 362.780, 367.014 365.568 C 367.006 368.355, 366.122 373.980, 365.049 378.068 C 363.308 384.697, 363.257 385.743, 364.572 387.750 C 365.383 388.987, 366.472 390, 366.992 390 C 367.512 390, 367.685 390.658, 367.376 391.462 C 366.601 393.482, 363.189 394.401, 361.541 393.034 C 360.604 392.256, 359.976 392.230, 359.530 392.951 C 359.174 393.528, 359.164 394, 359.509 394 C 359.854 394, 359.177 395.347, 358.005 396.993 C 356.833 398.639, 356.171 400.468, 356.535 401.056 C 356.898 401.645, 356.422 402.981, 355.477 404.026 C 354.336 405.286, 354.026 406.527, 354.555 407.713 C 355.244 409.258, 355.409 409.162, 355.777 407 C 356.331 403.737, 357.745 402.953, 360.906 404.154 C 364.149 405.387, 369.382 404.450, 371.150 402.319 C 372.355 400.865, 372.146 400.874, 369.200 402.397 C 366.017 404.042, 362 403.809, 362 401.978 C 362 401.490, 363.688 400.815, 365.750 400.478 C 367.813 400.141, 370.715 399.640, 372.200 399.364 C 373.685 399.089, 376.722 397.094, 378.950 394.933 C 384.071 389.963, 384.507 385.333, 380.250 381.135 C 377.635 378.556, 377.586 378.339, 379.250 376.712 C 381.095 374.907, 381.712 371.442, 380 372.500 C 379.450 372.840, 379 373.751, 379 374.524 C 379 375.297, 378.048 376.439, 376.883 377.062 C 375.230 377.947, 374.455 377.884, 373.343 376.772 C 372.112 375.540, 372.431 374.772, 375.710 371.083 L 379.500 366.818 390.175 365.515 C 396.046 364.797, 403.120 363.457, 405.895 362.535 C 411.549 360.657, 419.487 354.060, 424.021 347.470 C 426.467 343.914, 426.701 343.099, 425.416 342.606 C 424.568 342.281, 424.183 341.513, 424.562 340.900 C 425.047 340.114, 425.491 340.176, 426.068 341.109 C 427.127 342.824, 428.987 338.165, 429.032 333.685 C 429.049 331.933, 429.746 329.600, 430.581 328.500 C 431.759 326.946, 431.946 325.075, 431.417 320.110 C 430.965 315.865, 431.079 313.931, 431.755 314.348 C 432.315 314.694, 433.018 314.037, 433.319 312.888 C 433.620 311.739, 434.313 311.076, 434.861 311.414 C 436.220 312.254, 436.907 309.393, 436.641 304 C 436.363 298.348, 434.030 292, 432.231 292 C 431.246 292, 431.460 291.162, 433 289 C 434.371 287.075, 436.007 286, 437.568 286 C 438.906 286, 440 285.498, 440 284.883 C 440 283.772, 437.168 284.042, 433.750 285.478 C 432.228 286.118, 432 285.605, 432 281.540 C 432 277.121, 432.123 276.909, 434.250 277.669 C 435.488 278.111, 438.188 278.479, 440.250 278.487 C 442.313 278.494, 444 278.893, 444 279.372 C 444 279.852, 444.675 279.685, 445.500 279 C 446.325 278.315, 447 277.045, 447 276.178 C 447 275.046, 447.306 274.906, 448.082 275.682 C 449.630 277.230, 447.271 280.645, 443.606 282.163 C 441.983 282.835, 441.198 283.566, 441.860 283.787 C 443.741 284.414, 447.795 281.298, 449.574 277.856 C 451.106 274.894, 451.082 274.596, 449.102 272.116 C 445.921 268.132, 443.820 264, 444.974 264 C 445.538 264, 446 263.416, 446 262.702 C 446 261.988, 449.342 258.966, 453.427 255.987 C 459.518 251.544, 460.840 250.095, 460.779 247.929 C 460.682 244.528, 461.690 242.944, 463.506 243.641 C 464.747 244.117, 464.736 244.407, 463.427 245.716 C 462.590 246.553, 462.182 247.515, 462.521 247.854 C 463.169 248.502, 466.331 244.897, 468.096 241.500 C 468.806 240.133, 468.470 240.291, 467.036 242 L 464.937 244.500 465.505 238.500 C 466.599 226.940, 468.394 225.608, 469.332 235.658 C 469.835 241.036, 469.575 243.198, 467.982 246.908 C 466.676 249.948, 466.520 250.836, 467.521 249.537 C 468.352 248.457, 469.788 245.175, 470.712 242.244 C 473.515 233.352, 471.521 225.370, 462.405 209 C 461.639 207.625, 461.010 205.739, 461.006 204.809 C 461.003 203.879, 460.550 202.840, 460 202.500 C 459.450 202.160, 459.014 201.346, 459.032 200.691 C 459.050 200.009, 459.609 200.217, 460.339 201.178 C 461.214 202.328, 462.069 202.569, 463.058 201.943 C 463.851 201.441, 464.782 201.024, 465.127 201.015 C 466.185 200.989, 470 210.713, 470 213.435 C 470 214.846, 470.509 216, 471.130 216 C 472.712 216, 471.600 206.989, 469.888 205.931 C 469.156 205.479, 468.874 204.793, 469.260 204.407 C 470.279 203.387, 465.883 196, 464.257 196 C 463.501 196, 463.118 195.618, 463.406 195.151 C 463.695 194.685, 462.995 193.299, 461.852 192.072 C 460.366 190.477, 459.092 190.011, 457.387 190.439 C 456.041 190.777, 455 190.594, 455 190.019 C 455 189.459, 455.948 189, 457.107 189 C 458.614 189, 459.042 188.551, 458.609 187.424 C 458.277 186.557, 459.129 183.930, 460.502 181.586 C 461.876 179.242, 462.984 176.689, 462.963 175.912 C 462.943 175.135, 461.784 176.863, 460.387 179.750 C 458.990 182.637, 457.544 184.975, 457.173 184.945 C 456.803 184.914, 455.443 183.552, 454.151 181.917 C 452.249 179.511, 452.034 178.663, 453.023 177.472 C 453.988 176.310, 453.983 176, 453 176 C 452.055 176, 452.086 175.578, 453.128 174.250 C 454.370 172.666, 454.335 172.630, 452.761 173.863 C 451.805 174.613, 451.312 175.695, 451.666 176.268 C 452.437 177.516, 450.303 176.385, 447.750 174.193 C 446.179 172.844, 446 172.866, 446 174.404 C 446 175.347, 445.549 175.839, 444.997 175.498 C 444.329 175.085, 444.327 174.257, 444.993 173.013 C 445.825 171.459, 445.201 170.471, 441.246 167.080 C 436.095 162.666, 436.776 162.125, 444.544 164.463 C 447.219 165.268, 449.579 165.755, 449.789 165.544 C 450.534 164.799, 446.422 163.208, 440.715 162.034 C 437.406 161.353, 433.768 159.822, 432.215 158.457 L 429.500 156.070 432.500 153.599 C 436.035 150.687, 437.783 150.877, 446.760 155.153 C 450.965 157.156, 453.837 159.338, 455.510 161.800 C 459.229 167.272, 458.715 167.962, 452.750 165.506 C 449.940 164.349, 450.738 166.560, 453.602 167.864 C 455.861 168.894, 456.032 169.277, 454.900 170.775 C 453.794 172.239, 453.808 172.311, 454.998 171.250 C 455.769 170.563, 457.063 170, 457.874 170 C 458.943 170, 458.682 170.756, 456.924 172.750 L 454.500 175.500 457.224 173.100 C 459.610 170.998, 460.026 170.904, 460.579 172.344 C 460.926 173.249, 461.620 173.735, 462.122 173.424 C 462.624 173.114, 462.121 171.698, 461.003 170.277 C 459.334 168.155, 459.086 166.832, 459.612 162.865 C 460.251 158.050, 460.237 158.020, 454.856 152.768 C 451.887 149.870, 447.942 146.697, 446.088 145.715 L 442.717 143.930 444.710 141.715 C 445.806 140.497, 447.054 138.825, 447.483 138 C 447.912 137.175, 446.943 138.028, 445.329 139.896 L 442.393 143.291 437.298 141.599 L 432.202 139.906 435.612 134.244 C 441.239 124.899, 442.061 119.936, 439.443 111.119 C 437.218 103.629, 430.327 96.707, 422.984 94.587 C 417.752 93.076, 417.379 92.749, 415.766 88.247 C 409.554 70.918, 395.074 56.804, 379.500 52.898 C 376.127 52.052, 372.548 50.019, 368.500 46.648 C 365.200 43.900, 359.350 39.641, 355.500 37.183 C 351.650 34.725, 347.375 31.677, 346 30.411 C 340.299 25.158, 335.624 24.077, 317.421 23.802 C 301.354 23.559, 300.167 23.675, 293.892 26.098 C 288.992 27.989, 286.665 28.418, 284.892 27.756 C 281.734 26.577, 275.189 27.609, 270.425 30.038 C 266.171 32.207, 265.780 32.019, 264.104 27 C 261.932 20.496, 256.785 13.121, 253.658 12.031 C 249.637 10.629, 247.644 10.785, 239.500 13.138 M 176.881 15.503 C 174.086 17.022, 171.635 21.449, 170.651 26.758 L 170.047 30.017 174.216 27.890 C 177.699 26.113, 179.410 25.868, 184.621 26.402 C 188.606 26.810, 191.093 26.659, 191.511 25.982 C 191.871 25.400, 194.667 23.512, 197.724 21.787 C 203.031 18.792, 203.175 18.606, 200.892 17.704 C 196.930 16.138, 186.732 14.070, 183 14.075 C 181.075 14.078, 178.322 14.720, 176.881 15.503 M 214.828 18.903 C 208.157 19.618, 207.562 20.018, 209.407 22.542 C 210.759 24.391, 210.928 24.378, 216.147 22.021 C 222.049 19.356, 224.203 17.919, 221.950 18.147 C 221.153 18.228, 217.947 18.568, 214.828 18.903 M 197.934 23.472 C 195.423 24.781, 192.815 26.518, 192.139 27.333 C 191.108 28.575, 191.471 29, 194.382 29.961 C 197.447 30.972, 198.451 30.805, 202.927 28.537 C 208.470 25.728, 208.464 25.736, 206.965 22.934 C 205.623 20.427, 203.540 20.551, 197.934 23.472 M 299 26.244 C 291.957 27.855, 295.712 28.169, 303.512 26.621 C 308.206 25.689, 309.351 25.230, 307 25.224 C 305.075 25.219, 301.475 25.677, 299 26.244 M 330.522 27.469 C 332.733 28.169, 336.108 29.019, 338.022 29.359 L 341.500 29.977 337.500 28.015 C 335.300 26.935, 331.925 26.085, 330 26.125 L 326.500 26.198 330.522 27.469 M 276 30.031 C 272.688 30.610, 266 33.574, 266 34.464 C 266 34.691, 267.238 34.792, 268.750 34.688 C 271.120 34.526, 271.453 34.832, 271.162 36.900 C 270.832 39.240, 270.944 39.213, 275.662 35.798 C 278.323 33.871, 281.344 31.842, 282.375 31.288 C 284.117 30.352, 284.082 30.251, 281.875 29.850 C 280.569 29.613, 277.925 29.695, 276 30.031 M 170.872 31.750 C 169.629 33.336, 169.664 33.371, 171.250 32.128 C 172.213 31.373, 173 30.585, 173 30.378 C 173 29.555, 172.179 30.084, 170.872 31.750 M 166.141 37.637 C 164.940 40.317, 164.966 40.394, 166.545 38.848 C 167.473 37.940, 168.050 36.651, 167.828 35.985 C 167.606 35.318, 166.847 36.062, 166.141 37.637 M 347 43.908 C 350.025 46.596, 352.634 48.669, 352.799 48.515 C 352.963 48.362, 352.791 47.015, 352.416 45.523 C 351.683 42.601, 346.753 39.003, 343.500 39.015 C 341.974 39.020, 342.803 40.180, 347 43.908 M 156.237 43.920 C 153.354 44.896, 150.045 46.551, 148.884 47.597 L 146.773 49.500 151.637 50.127 C 157.376 50.866, 160.431 49.403, 161.426 45.439 C 161.795 43.968, 161.958 42.625, 161.788 42.455 C 161.618 42.285, 159.120 42.944, 156.237 43.920 M 355.340 47.137 C 355.688 48.436, 355.979 50.030, 355.986 50.679 C 355.994 51.327, 356.582 52.452, 357.293 53.179 C 358.004 53.905, 360.758 57.558, 363.413 61.296 C 366.069 65.034, 368.442 67.892, 368.686 67.647 C 369.457 66.877, 366.903 58.640, 364.858 55.301 C 363.515 53.106, 362.366 52.272, 361.200 52.645 C 359.792 53.095, 359.751 53.011, 360.960 52.155 C 362.214 51.268, 362.144 50.817, 360.471 48.968 C 359.399 47.784, 357.664 46.355, 356.615 45.794 C 354.933 44.894, 354.782 45.053, 355.340 47.137 M 377.328 56.378 C 378.308 57.874, 380.003 63.188, 381.094 68.187 C 382.185 73.186, 383.504 78.074, 384.026 79.049 C 385.232 81.301, 390.346 84.399, 395.500 85.999 C 397.700 86.682, 402.996 88.603, 407.268 90.269 C 411.541 91.934, 415.309 93.024, 415.642 92.691 C 417.427 90.906, 407.537 73.565, 400.992 67.005 C 395.512 61.512, 385.047 55.559, 378.606 54.271 L 375.547 53.659 377.328 56.378 M 137.500 57.950 C 134.154 59.328, 127.105 70.329, 128.870 71.420 C 129.935 72.078, 132.240 69.525, 134.360 65.338 C 135.240 63.599, 137.432 61.016, 139.230 59.599 C 142.418 57.087, 141.567 56.276, 137.500 57.950 M 98.930 70.856 C 96.836 72.551, 96.749 72.979, 97.919 75.804 L 99.200 78.896 102.850 76.528 C 104.857 75.225, 108.525 73.622, 111 72.965 C 118.401 71.002, 118.708 70.734, 114.500 69.904 C 107.348 68.494, 101.398 68.857, 98.930 70.856 M 112.734 74.088 C 106.066 75.659, 97.241 81, 101.314 81 C 102.101 81, 104.940 80.008, 107.623 78.795 C 110.305 77.582, 114.714 76.344, 117.421 76.045 C 123.103 75.416, 125.131 72.941, 119.833 73.100 C 118 73.156, 114.806 73.600, 112.734 74.088 M 98 83.059 C 98 83.641, 98.450 83.840, 99 83.500 C 99.550 83.160, 100 82.684, 100 82.441 C 100 82.198, 99.550 82, 99 82 C 98.450 82, 98 82.477, 98 83.059 M 104.455 90.455 C 103.105 91.805, 102 93.792, 102 94.870 C 102 96.742, 102.274 96.710, 108 94.180 C 111.300 92.721, 114 91.256, 114 90.924 C 114 90.221, 109.373 88, 107.907 88 C 107.358 88, 105.805 89.105, 104.455 90.455 M 95.667 95.667 C 95.300 96.033, 95.039 97.496, 95.086 98.917 C 95.170 101.453, 95.188 101.447, 96.053 98.550 C 96.962 95.507, 96.828 94.506, 95.667 95.667 M 403.178 95.454 C 404.541 96.933, 417.306 104.027, 417.770 103.564 C 419.028 102.305, 416.593 99.754, 412.428 97.969 C 407.184 95.721, 402.167 94.357, 403.178 95.454 M 421.500 98.265 C 426.968 102.278, 434.153 109.396, 435.642 112.275 C 436.941 114.786, 436.927 115.741, 435.517 120.590 C 434.641 123.603, 434.236 126.573, 434.617 127.189 C 434.997 127.805, 434.864 128.034, 434.319 127.697 C 432.967 126.861, 430 133.358, 430 137.156 C 430 141.169, 431.648 139.900, 435.406 132.995 C 440.537 123.568, 439.885 112.938, 433.676 104.798 C 430.215 100.259, 423.835 96.023, 420.500 96.048 C 418.797 96.061, 418.946 96.391, 421.500 98.265 M 406.397 102.593 C 406.733 103.469, 407.269 105.224, 407.587 106.492 C 407.906 107.761, 409.886 110.181, 411.988 111.870 C 415.134 114.398, 415.914 114.667, 416.404 113.389 C 417.960 109.333, 416.985 107.199, 412.162 104.104 C 406.710 100.606, 405.514 100.292, 406.397 102.593 M 419 103.797 C 419 104.785, 420.854 107.373, 423.119 109.547 C 425.385 111.721, 428.025 115.215, 428.986 117.312 C 430.531 120.678, 430.800 120.873, 431.296 118.977 C 431.690 117.471, 430.984 115.919, 428.928 113.768 C 427.318 112.082, 426 110.130, 426 109.428 C 426 107.878, 421.182 102, 419.911 102 C 419.410 102, 419 102.809, 419 103.797 M 75.081 110.588 C 65.265 113.228, 58.261 119.200, 61.046 122.556 C 61.758 123.414, 63.478 123.967, 64.914 123.801 C 66.991 123.559, 67.447 123.024, 67.232 121.083 C 66.872 117.836, 70.251 114.437, 75.901 112.360 C 84.505 109.198, 84.035 108.181, 75.081 110.588 M 417.499 113.003 C 417.019 115.192, 417.433 116.964, 419.029 119.546 C 421.170 123.011, 421.271 123.052, 423.703 121.459 C 426.097 119.891, 426.164 119.907, 425.527 121.915 C 424.724 124.446, 425.785 128.251, 427.072 127.456 C 429.397 126.019, 426.597 117.727, 422.107 112.750 C 418.961 109.264, 418.313 109.299, 417.499 113.003 M 71.306 116.415 C 69.763 117.743, 68.852 119.183, 69.282 119.614 C 69.712 120.045, 71.504 118.958, 73.263 117.199 C 76.986 113.476, 75.440 112.857, 71.306 116.415 M 74.507 123.989 C 74.157 124.555, 74.558 124.723, 75.448 124.382 C 77.180 123.717, 77.497 123, 76.059 123 C 75.541 123, 74.843 123.445, 74.507 123.989 M 69.872 128.750 C 68.629 130.336, 68.664 130.371, 70.250 129.128 C 71.213 128.373, 72 127.585, 72 127.378 C 72 126.555, 71.179 127.084, 69.872 128.750 M 61.872 136.750 C 60.629 138.336, 60.664 138.371, 62.250 137.128 C 63.916 135.821, 64.445 135, 63.622 135 C 63.415 135, 62.627 135.787, 61.872 136.750 M 80 137 C 79.411 138.100, 79.155 139, 79.430 139 C 79.705 139, 80.411 138.100, 81 137 C 81.589 135.900, 81.845 135, 81.570 135 C 81.295 135, 80.589 135.900, 80 137 M 60.647 148.987 C 52.731 159.104, 51.988 167.110, 58.108 176.350 C 63.405 184.346, 63.451 184.305, 65.335 169.818 C 66.387 161.737, 67.976 154.386, 69.475 150.676 C 71.746 145.054, 71.794 144.567, 70.204 143.358 C 67.318 141.165, 66.297 141.767, 60.647 148.987 M 430.667 142.667 C 430.300 143.033, 430 144.383, 430 145.667 C 430 148.263, 432.624 148.807, 436.121 146.935 C 437.216 146.349, 438.605 146.035, 439.208 146.236 C 439.812 146.437, 438.847 147.309, 437.063 148.173 L 433.819 149.744 437.660 150.447 C 444.242 151.653, 452.960 156.128, 456.063 159.893 C 459.365 163.899, 460.035 162.210, 457.072 157.350 C 454.750 153.542, 448.802 149.336, 439.792 145.131 C 432.760 141.849, 431.756 141.578, 430.667 142.667 M 55.872 145.750 C 54.629 147.336, 54.664 147.371, 56.250 146.128 C 57.916 144.821, 58.445 144, 57.622 144 C 57.415 144, 56.627 144.787, 55.872 145.750 M 72.111 151.111 C 70.656 155.285, 71.351 155.980, 73 152 C 73.698 150.315, 74.036 148.702, 73.750 148.417 C 73.465 148.131, 72.727 149.344, 72.111 151.111 M 429 152.500 C 429 154.393, 430.085 154.403, 432.559 152.532 C 434.418 151.126, 434.384 151.062, 431.750 151.032 C 429.958 151.011, 429 151.523, 429 152.500 M 44.079 169.583 C 44.127 170.748, 44.364 170.985, 44.683 170.188 C 44.972 169.466, 44.936 168.603, 44.604 168.271 C 44.272 167.939, 44.036 168.529, 44.079 169.583 M 42.562 178.350 C 40.752 193.531, 43.523 204.333, 50.668 209.954 C 53.899 212.495, 55.093 212.222, 56.276 208.671 C 57.044 206.368, 56.698 205.420, 53.942 202.281 C 48.872 196.507, 44.893 186.999, 44.085 178.729 L 43.379 171.500 42.562 178.350 M 429 177.559 C 429 178.416, 429.457 178.835, 430.016 178.490 C 430.575 178.144, 430.774 177.443, 430.457 176.931 C 429.600 175.544, 429 175.802, 429 177.559 M 448.500 185 C 448.840 185.550, 449.316 186, 449.559 186 C 449.802 186, 450 185.550, 450 185 C 450 184.450, 449.523 184, 448.941 184 C 448.359 184, 448.160 184.450, 448.500 185 M 439.564 186.707 C 439.022 188.132, 439.136 188.247, 440.124 187.267 C 440.808 186.588, 441.115 185.781, 440.807 185.474 C 440.499 185.166, 439.940 185.721, 439.564 186.707 M 451 189 C 451 189.550, 451.423 190, 451.941 190 C 452.459 190, 453.160 189.550, 453.500 189 C 453.840 188.450, 453.416 188, 452.559 188 C 451.702 188, 451 188.450, 451 189 M 458.250 193.279 C 459.212 194.072, 460 195.063, 460 195.483 C 460 195.902, 459.382 195.732, 458.627 195.105 C 457.146 193.876, 454 194.603, 454 196.174 C 454 196.703, 454.897 196.850, 455.994 196.502 C 457.492 196.026, 457.845 196.240, 457.415 197.362 C 456.987 198.476, 457.368 198.717, 458.921 198.310 C 460.393 197.925, 461 198.239, 461 199.383 C 461 201.319, 463.326 201.517, 464.827 199.709 C 465.622 198.750, 465.397 198.104, 463.949 197.200 C 462.877 196.531, 462 195.312, 462 194.492 C 462 193.671, 461.587 193, 461.082 193 C 460.577 193, 459.339 192.738, 458.332 192.418 C 456.598 191.868, 456.594 191.914, 458.250 193.279 M 304.991 201.506 C 301.323 203.974, 299.978 204.499, 300.446 203.279 C 300.932 202.014, 300.423 202.194, 298.556 203.948 C 297.150 205.268, 296 205.794, 296 205.115 C 296 204.437, 295.555 204.157, 295.011 204.493 C 294.422 204.857, 294.285 204.377, 294.672 203.302 C 295.193 201.854, 294.812 201.963, 292.734 203.855 C 291.312 205.150, 289.665 205.911, 289.074 205.546 C 288.386 205.120, 288 206.159, 288 208.441 C 288 210.398, 288.450 212, 289 212 C 289.550 212, 290.007 211.438, 290.015 210.750 C 290.023 210.063, 290.586 210.600, 291.266 211.943 C 292.331 214.047, 292.155 215.090, 290.001 219.438 C 288.114 223.251, 287.416 226.459, 287.157 232.519 C 286.702 243.155, 288.111 245.129, 296.584 245.722 C 300.437 245.992, 302.031 245.810, 301.156 245.201 C 299.205 243.844, 302.007 238.825, 306.196 236.173 L 309.466 234.102 310.775 238.591 C 312.277 243.741, 316.496 246.990, 321.691 246.996 C 325.605 247.001, 326.877 245.538, 323.077 245.402 C 317.227 245.193, 314.897 243.997, 313.411 240.442 C 312.335 237.866, 312.231 236.437, 313.012 234.977 C 314.527 232.147, 316.387 232.536, 317.677 235.955 C 319.350 240.387, 323.624 241.139, 326.716 237.544 C 328.909 234.994, 328.960 234.691, 327.393 233.545 C 326.191 232.666, 326.036 232.096, 326.860 231.587 C 328.165 230.780, 333.964 236.082, 334.063 238.173 C 334.098 238.903, 334.534 238.488, 335.031 237.250 C 335.529 236.012, 336.799 235, 337.854 235 C 339.701 235, 352 242.584, 352 243.722 C 352 244.029, 351.212 244.877, 350.250 245.608 C 348.583 246.873, 348.583 246.938, 350.250 246.968 C 351.212 246.986, 352 246.550, 352 246 C 352 245.450, 353.913 244.939, 356.250 244.864 C 358.587 244.789, 359.560 244.542, 358.411 244.315 C 357.261 244.089, 354.336 241.792, 351.911 239.211 C 349.485 236.630, 348.969 235.843, 350.764 237.460 C 353.644 240.055, 354.201 240.227, 355.507 238.922 C 356.812 237.617, 356.686 237.003, 354.438 233.694 C 352.112 230.271, 351.999 229.644, 353.139 226.491 C 354.200 223.559, 354.135 222.506, 352.710 219.519 C 351.040 216.016, 351.043 216, 353.381 216 C 354.673 216, 356.940 216.951, 358.418 218.114 C 362.783 221.548, 362.388 219.648, 357.638 214.365 C 354.786 211.193, 350.612 208.137, 345.860 205.742 C 339.327 202.449, 337.176 201.912, 326.723 200.958 C 320.245 200.366, 314.057 200.134, 312.973 200.441 C 306.636 202.236, 306.412 202.213, 309.500 200.083 C 311.150 198.944, 311.983 198.010, 311.350 198.007 C 310.718 198.003, 307.857 199.578, 304.991 201.506 M 430.500 199 C 430.160 199.550, 430.359 200, 430.941 200 C 431.523 200, 432 199.550, 432 199 C 432 198.450, 431.802 198, 431.559 198 C 431.316 198, 430.840 198.450, 430.500 199 M 431.500 207 C 431.160 207.550, 431.359 208, 431.941 208 C 432.523 208, 433 207.550, 433 207 C 433 206.450, 432.802 206, 432.559 206 C 432.316 206, 431.840 206.450, 431.500 207 M 444.609 210.576 C 443.764 212.779, 444.692 213.708, 446.217 212.183 C 447.055 211.345, 447.089 210.689, 446.333 209.933 C 445.576 209.176, 445.074 209.364, 444.609 210.576 M 59.473 211.044 C 58.485 212.642, 60.959 215, 63.622 215 C 66.586 215, 66.614 214.333, 63.750 211.944 C 61.142 209.768, 60.363 209.604, 59.473 211.044 M 420 217 C 420 217.550, 420.450 218, 421 218 C 421.550 218, 422 217.550, 422 217 C 422 216.450, 421.550 216, 421 216 C 420.450 216, 420 216.450, 420 217 M 439.502 222.648 C 439.134 225.867, 438.637 230.300, 438.397 232.500 C 438.156 234.700, 437.516 236.651, 436.974 236.835 C 435.849 237.218, 436.674 239, 437.976 239 C 438.448 239, 439.608 236.975, 440.553 234.500 C 441.498 232.025, 442.661 230, 443.136 230 C 443.611 230, 444 230.247, 444 230.550 C 444 231.644, 440.648 237.574, 438.233 240.750 C 436.170 243.464, 436.038 244, 437.431 244 C 438.349 244, 440.380 243.338, 441.945 242.528 C 444.326 241.297, 444.952 240.127, 445.770 235.380 C 446.307 232.257, 446.435 228.536, 446.054 227.109 L 445.360 224.515 444.513 227.007 C 443.762 229.217, 443.621 228.998, 443.267 225.075 C 443.048 222.641, 442.261 219.783, 441.519 218.723 C 440.302 216.986, 440.104 217.371, 439.502 222.648 M 464.387 223.078 C 465.146 226.784, 465.104 228.603, 464.229 230.006 C 463.575 231.052, 463.431 232.148, 463.907 232.442 C 464.383 232.737, 465.006 232.084, 465.292 230.991 C 465.578 229.899, 466.866 228.583, 468.156 228.066 C 469.445 227.549, 469.972 227.098, 469.328 227.063 C 468.683 227.029, 467.647 225.461, 467.026 223.580 C 466.406 221.699, 465.326 219.686, 464.627 219.106 C 463.607 218.259, 463.559 219.040, 464.387 223.078 M 410 220.500 C 410 221.417, 410.484 222.005, 411.075 221.808 C 411.666 221.611, 412.150 221.022, 412.150 220.500 C 412.150 219.978, 411.666 219.389, 411.075 219.192 C 410.484 218.995, 410 219.583, 410 220.500 M 457.579 224.034 C 456.582 226.490, 454.928 230.909, 453.902 233.854 L 452.036 239.208 454.768 238.601 L 457.500 237.994 454.873 239.464 C 453.428 240.273, 452.028 242.075, 451.761 243.468 C 451.205 246.381, 452.422 246.822, 453.920 244.250 C 454.814 242.715, 454.943 242.700, 454.970 244.128 C 454.986 245.023, 454.325 246.315, 453.500 247 C 452.675 247.685, 452 248.920, 452 249.745 C 452 251.027, 452.243 251.046, 453.673 249.872 C 455.164 248.650, 455.284 248.746, 454.767 250.750 C 454.448 251.988, 454.525 253, 454.939 253 C 456.404 253, 459 249.312, 459 247.230 C 459 246.069, 459.492 244.814, 460.094 244.442 C 460.696 244.070, 460.983 242.693, 460.733 241.383 C 460.482 240.072, 460.665 239, 461.139 239 C 461.612 239, 462 238.339, 462 237.531 C 462 236.569, 461.423 236.284, 460.326 236.705 C 458.989 237.218, 458.808 236.961, 459.425 235.424 C 460.829 231.926, 461.205 226.550, 460.291 223.034 L 459.390 219.567 457.579 224.034 M 397 223.500 C 397 224.417, 397.484 225.005, 398.075 224.808 C 398.666 224.611, 399.150 224.022, 399.150 223.500 C 399.150 222.978, 398.666 222.389, 398.075 222.192 C 397.484 221.995, 397 222.583, 397 223.500 M 415.553 223.915 C 415.231 224.436, 415.394 225.125, 415.915 225.447 C 416.436 225.769, 417.125 225.606, 417.447 225.085 C 417.769 224.564, 417.606 223.875, 417.085 223.553 C 416.564 223.231, 415.875 223.394, 415.553 223.915 M 421.500 226 C 421.160 226.550, 421.359 227, 421.941 227 C 422.523 227, 423 226.550, 423 226 C 423 225.450, 422.802 225, 422.559 225 C 422.316 225, 421.840 225.450, 421.500 226 M 64.819 228.081 C 62.082 229.613, 59 235.499, 59 239.194 C 59 243.834, 62.455 247.019, 68.152 247.631 L 72.500 248.098 69.242 246.594 C 64.029 244.187, 63.025 238.951, 66.197 230.718 C 67.453 227.458, 67.109 226.800, 64.819 228.081 M 206.639 229.694 C 205.513 230.820, 205.954 232, 207.500 232 C 208.325 232, 209 231.577, 209 231.059 C 209 229.798, 207.438 228.895, 206.639 229.694 M 407.510 230.016 C 407.856 230.575, 408.557 230.774, 409.069 230.457 C 410.456 229.600, 410.198 229, 408.441 229 C 407.584 229, 407.165 229.457, 407.510 230.016 M 410 231.941 C 410 232.459, 410.450 233.160, 411 233.500 C 411.550 233.840, 412 233.416, 412 232.559 C 412 231.702, 411.550 231, 411 231 C 410.450 231, 410 231.423, 410 231.941 M 214.967 238.065 C 213.809 240.334, 211.310 243.064, 209.312 244.244 C 206.051 246.168, 205.912 246.423, 207.758 247.106 C 209.638 247.802, 222.255 245.197, 224.887 243.570 C 226.141 242.795, 226.351 239.071, 225.235 237.400 C 224.246 235.919, 220.494 234, 218.586 234 C 217.736 234, 216.107 235.829, 214.967 238.065 M 418.583 235.643 C 418.237 236.547, 418.150 237.483, 418.391 237.724 C 419.070 238.403, 423 236.050, 423 234.965 C 423 233.326, 419.252 233.902, 418.583 235.643 M 419.543 239.931 C 419.226 240.443, 419.425 241.144, 419.984 241.490 C 420.543 241.835, 421 241.416, 421 240.559 C 421 238.802, 420.400 238.544, 419.543 239.931 M 457.667 239.667 C 457.300 240.033, 457 240.798, 457 241.367 C 457 241.993, 457.466 241.934, 458.183 241.217 C 458.834 240.566, 459.134 239.801, 458.850 239.517 C 458.566 239.232, 458.033 239.300, 457.667 239.667 M 438.875 245.506 C 436.097 247.016, 434.300 251, 436.397 251 C 437.063 251, 439.134 249.425, 441 247.500 C 444.547 243.840, 443.592 242.943, 438.875 245.506 M 303.980 247.524 C 302.048 249.853, 303.426 250.291, 305.494 248.006 C 306.493 246.903, 306.845 246, 306.277 246 C 305.710 246, 304.676 246.686, 303.980 247.524 M 289.761 248.500 C 291.051 250.944, 294.494 254.121, 298.500 256.565 C 300.150 257.571, 301.275 258.167, 301 257.888 C 296.238 253.066, 288.965 246.991, 289.761 248.500 M 408.507 248.989 C 408.157 249.555, 408.558 249.723, 409.448 249.382 C 411.180 248.717, 411.497 248, 410.059 248 C 409.541 248, 408.843 248.445, 408.507 248.989 M 317.964 250.836 C 318.623 252.120, 319.436 252.897, 319.771 252.562 C 320.107 252.227, 319.568 251.176, 318.574 250.226 C 316.846 248.576, 316.819 248.603, 317.964 250.836 M 410 251.059 C 410 251.641, 410.450 251.840, 411 251.500 C 411.550 251.160, 412 250.684, 412 250.441 C 412 250.198, 411.550 250, 411 250 C 410.450 250, 410 250.477, 410 251.059 M 438.405 252.250 L 436.500 254.500 438.750 252.595 C 440.864 250.805, 441.455 250, 440.655 250 C 440.465 250, 439.453 251.012, 438.405 252.250 M 326.564 253.293 C 326.940 254.279, 327.499 254.834, 327.807 254.526 C 328.115 254.219, 327.808 253.412, 327.124 252.733 C 326.136 251.753, 326.022 251.868, 326.564 253.293 M 460.980 257.524 C 460.284 258.362, 459.909 259.242, 460.145 259.479 C 460.382 259.715, 461.125 259.030, 461.796 257.955 C 463.248 255.630, 462.764 255.375, 460.980 257.524 M 157.360 260.460 C 150.352 265.369, 152.885 280.931, 161.272 284.491 C 164.722 285.955, 179 298.530, 179 300.104 C 179 301.661, 188.201 317, 189.135 317 C 189.611 317, 190 317.518, 190 318.150 C 190 319.742, 198.891 328, 200.605 328 C 201.372 328, 202 328.374, 202 328.832 C 202 329.290, 203.555 330.142, 205.455 330.725 C 208.639 331.702, 209.049 331.578, 210.666 329.143 C 212.618 326.204, 212.854 325.375, 213.487 319.213 C 213.729 316.856, 214.262 314.385, 214.672 313.722 C 215.082 313.059, 215.488 310.938, 215.575 309.008 C 215.662 307.079, 216.113 302.350, 216.578 298.500 C 217.043 294.650, 217.387 288.875, 217.343 285.667 C 217.272 280.426, 216.938 279.536, 214.056 276.904 C 212.216 275.223, 210.349 274.286, 209.675 274.704 C 209.029 275.105, 205.908 275.448, 202.739 275.466 C 198.219 275.493, 197.093 275.200, 197.512 274.109 C 197.909 273.073, 197.717 272.990, 196.762 273.783 C 195.100 275.162, 187.652 272.103, 179.640 266.750 C 168.733 259.462, 161.643 257.461, 157.360 260.460 M 387 262 C 387 262.550, 387.450 263, 388 263 C 388.550 263, 389 262.550, 389 262 C 389 261.450, 388.550 261, 388 261 C 387.450 261, 387 261.450, 387 262 M 71 266.235 C 71 268.234, 71.482 271.137, 72.070 272.685 C 73.028 275.204, 73.246 275.312, 74.138 273.719 C 74.817 272.504, 74.756 270.754, 73.946 268.219 C 72.220 262.814, 71 261.993, 71 266.235 M 402.500 264 C 402.840 264.550, 403.316 265, 403.559 265 C 403.802 265, 404 264.550, 404 264 C 404 263.450, 403.523 263, 402.941 263 C 402.359 263, 402.160 263.450, 402.500 264 M 393.500 265 C 393.840 265.550, 394.316 266, 394.559 266 C 394.802 266, 395 265.550, 395 265 C 395 264.450, 394.523 264, 393.941 264 C 393.359 264, 393.160 264.450, 393.500 265 M 388.143 266.890 C 387.397 267.363, 387.172 267.984, 387.643 268.270 C 388.114 268.556, 389.080 268.162, 389.789 267.395 C 391.218 265.849, 390.253 265.553, 388.143 266.890 M 456 268.718 C 456 274.916, 460.592 277.577, 466 274.513 C 468.433 273.134, 468.400 273.112, 464.758 273.678 C 460.394 274.356, 458 272.853, 458 269.437 C 458 268.161, 457.550 266.840, 457 266.500 C 456.423 266.143, 456 267.082, 456 268.718 M 63.100 271.691 C 63.045 273.446, 63.450 275.160, 64 275.500 C 65.150 276.211, 65.150 274.591, 64 271 C 63.235 268.613, 63.195 268.644, 63.100 271.691 M 397.029 270.961 C 396.220 271.473, 395.818 272.152, 396.136 272.470 C 396.455 272.788, 397.284 272.362, 397.980 271.524 C 399.423 269.786, 399.146 269.622, 397.029 270.961 M 419.850 274.778 C 419.535 278.075, 419.982 279.398, 422.335 282.148 C 424.365 284.521, 425.044 284.916, 424.661 283.500 C 424.363 282.400, 423.642 279.700, 423.060 277.500 C 421.365 271.101, 420.288 270.187, 419.850 274.778 M 439.500 272 C 439.840 272.550, 440.316 273, 440.559 273 C 440.802 273, 441 272.550, 441 272 C 441 271.450, 440.523 271, 439.941 271 C 439.359 271, 439.160 271.450, 439.500 272 M 389.700 274.959 C 390.293 277.228, 390.818 277.401, 392.971 276.039 C 394.663 274.969, 394.357 274.512, 391.333 273.583 C 389.512 273.024, 389.251 273.244, 389.700 274.959 M 384.161 277.968 C 383.212 280.690, 383.310 281, 385.118 281 C 386.225 281, 387.966 281.446, 388.985 281.992 C 390.729 282.926, 390.754 282.814, 389.399 280.097 C 386.921 275.130, 385.370 274.500, 384.161 277.968 M 406.872 279.750 C 405.629 281.336, 405.664 281.371, 407.250 280.128 C 408.212 279.373, 409 278.585, 409 278.378 C 409 277.555, 408.179 278.084, 406.872 279.750 M 393.250 281.559 C 391.777 283.157, 391.654 284, 392.893 284 C 393.746 284, 395.343 280.991, 394.774 280.458 C 394.623 280.317, 393.938 280.812, 393.250 281.559 M 437.872 281.664 C 436.617 283.186, 436.713 283.217, 439 282.028 C 442.352 280.286, 442.605 280, 440.789 280 C 439.940 280, 438.627 280.749, 437.872 281.664 M 400.500 282 C 400.160 282.550, 400.359 283, 400.941 283 C 401.523 283, 402 282.550, 402 282 C 402 281.450, 401.802 281, 401.559 281 C 401.316 281, 400.840 281.450, 400.500 282 M 380.143 285.890 C 379.309 286.419, 379.172 286.988, 379.788 287.369 C 380.340 287.710, 381.048 287.316, 381.364 286.494 C 382.026 284.767, 381.964 284.737, 380.143 285.890 M 416 286 C 416 286.550, 416.477 287, 417.059 287 C 417.641 287, 417.840 286.550, 417.500 286 C 417.160 285.450, 416.684 285, 416.441 285 C 416.198 285, 416 285.450, 416 286 M 421.304 288.489 C 421.616 290.407, 422.575 292.982, 423.435 294.211 L 425 296.445 425 294.190 C 425 291.592, 422.432 285, 421.420 285 C 421.045 285, 420.993 286.570, 421.304 288.489 M 398 288.893 C 398 289.384, 398.675 290.045, 399.500 290.362 C 400.414 290.712, 401 290.363, 401 289.469 C 401 288.661, 400.325 288, 399.500 288 C 398.675 288, 398 288.402, 398 288.893 M 379.684 290.750 C 379.446 291.163, 379.612 292.400, 380.055 293.500 C 380.757 295.246, 380.868 295.151, 380.930 292.750 C 380.999 290.037, 380.531 289.286, 379.684 290.750 M 409.459 291.067 C 409.096 291.653, 409.014 292.348, 409.276 292.610 C 409.538 292.872, 410.019 292.392, 410.345 291.543 C 411.021 289.781, 410.445 289.471, 409.459 291.067 M 61.258 295.250 C 57.857 298.775, 55.349 304, 57.057 304 C 57.611 304, 59.640 303.342, 61.566 302.537 C 64.662 301.243, 65.042 300.689, 64.844 297.749 C 64.721 295.920, 64.957 293.879, 65.369 293.212 C 66.850 290.816, 64.329 292.065, 61.258 295.250 M 397 293 C 397 293.550, 397.450 294, 398 294 C 398.550 294, 399 293.550, 399 293 C 399 292.450, 398.550 292, 398 292 C 397.450 292, 397 292.450, 397 293 M 393 299 C 392.099 299.582, 391.975 299.975, 392.691 299.985 C 393.346 299.993, 394.160 299.550, 394.500 299 C 395.267 297.758, 394.921 297.758, 393 299 M 402 300 C 402 300.550, 402.477 301, 403.059 301 C 403.641 301, 403.840 300.550, 403.500 300 C 403.160 299.450, 402.684 299, 402.441 299 C 402.198 299, 402 299.450, 402 300 M 413.079 303.583 C 413.127 304.748, 413.364 304.985, 413.683 304.188 C 413.972 303.466, 413.936 302.603, 413.604 302.271 C 413.272 301.939, 413.036 302.529, 413.079 303.583 M 59.750 305.206 C 54.322 307.542, 53.769 309.468, 57.004 314.775 C 58.768 317.668, 62.357 320, 65.045 320 C 66.471 320, 70.126 312.196, 69.020 311.512 C 68.489 311.184, 67.521 309.135, 66.869 306.958 C 66.217 304.781, 65.417 303.036, 65.092 303.081 C 64.766 303.125, 62.362 304.082, 59.750 305.206 M 422 304 C 422 304.550, 422.450 305, 423 305 C 423.550 305, 424 304.550, 424 304 C 424 303.450, 423.550 303, 423 303 C 422.450 303, 422 303.450, 422 304 M 427 304.924 C 427 305.398, 427.675 306.045, 428.500 306.362 C 429.325 306.678, 430 306.549, 430 306.076 C 430 305.602, 429.325 304.955, 428.500 304.638 C 427.675 304.322, 427 304.451, 427 304.924 M 413 307 C 413 307.550, 413.477 308, 414.059 308 C 414.641 308, 414.840 307.550, 414.500 307 C 414.160 306.450, 413.684 306, 413.441 306 C 413.198 306, 413 306.450, 413 307 M 380 307.800 C 380 308.789, 382.146 311, 383.106 311 C 383.495 311, 383.577 310.100, 383.290 309 C 382.795 307.110, 380 306.090, 380 307.800 M 431 308.059 C 431 308.641, 431.450 308.840, 432 308.500 C 432.550 308.160, 433 307.684, 433 307.441 C 433 307.198, 432.550 307, 432 307 C 431.450 307, 431 307.477, 431 308.059 M 402.500 309 C 402.160 309.550, 402.359 310, 402.941 310 C 403.523 310, 404 309.550, 404 309 C 404 308.450, 403.802 308, 403.559 308 C 403.316 308, 402.840 308.450, 402.500 309 M 421.559 308.905 C 421.258 309.392, 421.748 310.073, 422.649 310.419 C 424.804 311.246, 425.118 310.794, 423.452 309.260 C 422.712 308.578, 421.860 308.418, 421.559 308.905 M 49.197 311.673 C 45.727 315.117, 45.040 318.958, 47.524 321.020 C 49.499 322.659, 50.092 321.968, 50.706 317.316 C 51.318 312.670, 52 311.671, 52 315.417 C 52 317.194, 52.442 318.005, 53.250 317.708 C 53.938 317.456, 54.328 316.631, 54.118 315.875 C 53.908 315.119, 53.434 313.150, 53.065 311.500 L 52.393 308.500 49.197 311.673 M 429.079 310.583 C 429.127 311.748, 429.364 311.985, 429.683 311.188 C 429.972 310.466, 429.936 309.603, 429.604 309.271 C 429.272 308.939, 429.036 309.529, 429.079 310.583 M 406 312 C 406 312.550, 406.520 313, 407.155 313 C 407.846 313, 407.645 313.735, 406.655 314.829 C 404.921 316.745, 404.448 319, 405.781 319 C 406.844 319, 408.752 313.755, 408.243 312.230 C 407.753 310.758, 406 310.579, 406 312 M 379.526 314.358 C 378.405 315.177, 378.099 315.943, 378.735 316.336 C 379.306 316.689, 380.338 316.297, 381.029 315.465 C 382.733 313.412, 381.780 312.710, 379.526 314.358 M 417 316 C 415.900 317.100, 415 318.915, 415 320.032 C 415 321.205, 414.049 322.447, 412.750 322.969 C 411.512 323.466, 411 323.902, 411.611 323.937 C 412.251 323.973, 412.519 325.065, 412.243 326.509 C 411.790 328.878, 411.967 328.992, 415.411 328.551 C 419.636 328.010, 421.042 326.778, 422.694 322.168 C 424.072 318.324, 422.923 314, 420.525 314 C 419.686 314, 418.100 314.900, 417 316 M 397 317 C 397 317.550, 397.450 318, 398 318 C 398.550 318, 399 317.550, 399 317 C 399 316.450, 398.550 316, 398 316 C 397.450 316, 397 316.450, 397 317 M 413.500 317 C 413.840 317.550, 414.316 318, 414.559 318 C 414.802 318, 415 317.550, 415 317 C 415 316.450, 414.523 316, 413.941 316 C 413.359 316, 413.160 316.450, 413.500 317 M 410.500 318 C 410.840 318.550, 411.316 319, 411.559 319 C 411.802 319, 412 318.550, 412 318 C 412 317.450, 411.523 317, 410.941 317 C 410.359 317, 410.160 317.450, 410.500 318 M 52 321.607 C 52 322.662, 52.544 323.005, 53.582 322.607 C 54.452 322.273, 55.577 322, 56.082 322 C 56.587 322, 57 321.550, 57 321 C 57 320.450, 55.875 320, 54.500 320 C 52.870 320, 52 320.560, 52 321.607 M 412.500 321 C 412.840 321.550, 413.316 322, 413.559 322 C 413.802 322, 414 321.550, 414 321 C 414 320.450, 413.523 320, 412.941 320 C 412.359 320, 412.160 320.450, 412.500 321 M 429.070 322.750 C 429.032 324.538, 429.450 326, 430 326 C 431.187 326, 431.187 324.263, 430 321.500 C 429.280 319.824, 429.129 320.026, 429.070 322.750 M 55.862 323.387 L 53.224 325.712 55.692 328.865 C 58.563 332.534, 59.298 332.297, 62.104 326.796 C 63.786 323.499, 63.926 322.568, 62.840 321.880 C 60.652 320.493, 58.658 320.924, 55.862 323.387 M 74.561 329.043 C 73.053 332.404, 72.040 335.373, 72.310 335.643 C 72.580 335.913, 75.299 336.715, 78.352 337.425 L 83.904 338.715 84.947 335.721 C 85.871 333.072, 85.616 332.205, 82.734 328.193 C 80.943 325.699, 78.988 323.496, 78.390 323.297 C 77.792 323.097, 76.069 325.683, 74.561 329.043 M 405 323.941 C 405 325.334, 406.838 326.218, 408.107 325.434 C 408.878 324.957, 408.803 324.490, 407.857 323.890 C 406.072 322.759, 405 322.778, 405 323.941 M 400 327.969 C 400 328.501, 400.675 328.678, 401.500 328.362 C 402.325 328.045, 403 327.609, 403 327.393 C 403 327.177, 402.325 327, 401.500 327 C 400.675 327, 400 327.436, 400 327.969 M 418.262 329.950 C 418.393 330.433, 416.812 332.866, 414.750 335.355 C 411.023 339.853, 411.109 341.735, 414.983 340.505 C 419.559 339.053, 422.935 330.957, 419.512 329.643 C 418.694 329.329, 418.131 329.467, 418.262 329.950 M 412 333.709 C 409.993 334.447, 407 337.105, 407 338.149 C 407 339.537, 410.769 338.519, 412.955 336.540 C 416.093 333.701, 415.644 332.370, 412 333.709 M 58.098 340.980 C 56.885 346.636, 56.813 353.161, 57.921 357 C 58.375 358.572, 58.858 355.231, 59.221 348 C 59.540 341.675, 59.664 336.356, 59.498 336.181 C 59.331 336.006, 58.701 338.165, 58.098 340.980 M 400 338.833 C 400 339.292, 400.655 339.667, 401.456 339.667 C 402.257 339.667, 402.680 339.292, 402.397 338.833 C 402.114 338.375, 401.459 338, 400.941 338 C 400.423 338, 400 338.375, 400 338.833 M 68.991 346.549 C 67.204 356.016, 68.068 362.802, 71.427 365.691 C 74.579 368.402, 77.489 368.588, 82.898 366.424 L 86.837 364.848 84.313 361.174 C 82.011 357.822, 81.834 356.831, 82.292 349.867 L 82.795 342.235 77.231 341.117 C 74.170 340.503, 71.342 340, 70.946 340 C 70.550 340, 69.670 342.947, 68.991 346.549 M 405.250 340.662 C 404.025 341.157, 403.447 344, 404.571 344 C 404.886 344, 405.786 343.357, 406.571 342.571 C 408.870 340.273, 408.290 339.435, 405.250 340.662 M 407.317 343.202 C 406.387 344.230, 405.035 344.830, 404.313 344.535 C 399.223 342.460, 399.356 342.467, 401.259 344.387 C 402.227 345.363, 402.717 346.687, 402.349 347.331 C 401.981 347.974, 402.048 348.166, 402.498 347.759 C 402.948 347.351, 403.930 347.527, 404.681 348.150 C 405.734 349.024, 405.926 348.965, 405.523 347.891 C 404.922 346.295, 409.670 343.657, 410.558 345.094 C 411.432 346.508, 410.257 347.765, 405.403 350.610 C 399.342 354.162, 400.398 354.623, 407.329 351.450 C 413.821 348.477, 414.550 347.701, 412.466 345.972 C 411.635 345.282, 411.197 343.956, 411.492 343.025 C 412.228 340.707, 409.470 340.824, 407.317 343.202 M 416 343.500 C 415.293 344.352, 414.940 345.273, 415.215 345.548 C 415.490 345.823, 416.293 345.352, 417 344.500 C 417.707 343.648, 418.060 342.727, 417.785 342.452 C 417.510 342.177, 416.707 342.648, 416 343.500 M 84.172 349.500 C 84.109 353.236, 84.639 356.443, 85.577 358 L 87.083 360.500 86.380 358 C 85.993 356.625, 85.361 352.800, 84.975 349.500 L 84.274 343.500 84.172 349.500 M 88.250 348.500 C 88.205 352.915, 89.411 359.344, 90.031 358 C 90.158 357.725, 90.369 354.575, 90.499 351 C 90.642 347.076, 90.450 345.491, 90.014 347 C 89.295 349.493, 89.291 349.491, 88.796 346.500 C 88.454 344.434, 88.284 345.057, 88.250 348.500 M 93.079 348.583 C 93.127 349.748, 93.364 349.985, 93.683 349.188 C 93.972 348.466, 93.936 347.603, 93.604 347.271 C 93.272 346.939, 93.036 347.529, 93.079 348.583 M 420.500 349 C 420.840 349.550, 421.316 350, 421.559 350 C 421.802 350, 422 349.550, 422 349 C 422 348.450, 421.523 348, 420.941 348 C 420.359 348, 420.160 348.450, 420.500 349 M 94.613 354.183 C 94.095 356.773, 94.491 357.938, 96.738 360.433 L 99.500 363.500 96.280 360.591 C 93.353 357.948, 92.996 357.848, 92.363 359.497 C 91.037 362.951, 98.105 366.491, 101.730 364.188 C 102.643 363.608, 102.130 361.816, 99.730 357.212 C 97.953 353.804, 96.219 351.013, 95.875 351.008 C 95.531 351.004, 94.964 352.432, 94.613 354.183 M 85.687 368.805 C 84.209 370.347, 83 371.882, 83 372.214 C 83 373.087, 93.105 370.295, 94.312 369.088 C 94.997 368.403, 94.442 367.738, 92.598 367.037 C 88.841 365.609, 88.719 365.640, 85.687 368.805 M 81.047 368.667 C 79.148 369.495, 75.857 370.006, 73.734 369.803 C 70.273 369.473, 70.062 369.578, 71.687 370.821 C 73.372 372.109, 73.341 372.160, 71.250 371.536 C 68.721 370.782, 68.122 372.449, 70.582 373.393 C 72.782 374.237, 75.211 374.152, 74.658 373.250 C 74.406 372.837, 75.754 372.465, 77.654 372.423 C 79.996 372.370, 81.970 371.484, 83.782 369.673 C 86.767 366.687, 86.130 366.453, 81.047 368.667 M 368.120 379.750 C 367.581 380.712, 366.772 381.364, 366.320 381.197 C 365.869 381.031, 365.362 381.552, 365.194 382.355 C 364.772 384.374, 370.118 389.169, 372.204 388.642 C 373.624 388.283, 373.809 388.734, 373.313 391.356 C 372.986 393.085, 372.268 395.073, 371.717 395.774 C 369.918 398.062, 372.002 398.454, 375.617 396.507 C 380.451 393.904, 382.202 390.314, 380.913 385.646 C 379.749 381.432, 376.924 379.565, 372.922 380.366 C 370.706 380.809, 370.211 380.613, 370.651 379.466 C 371.446 377.396, 369.303 377.636, 368.120 379.750 M 110.655 385.829 C 107.142 389.711, 109.123 394.015, 116.036 397.518 L 121 400.034 121 397.539 C 121 393.823, 115.883 384, 113.947 384 C 113.046 384, 111.565 384.823, 110.655 385.829 M 124.564 392.707 C 124.022 394.132, 124.136 394.247, 125.124 393.267 C 125.808 392.588, 126.115 391.781, 125.807 391.474 C 125.499 391.166, 124.940 391.721, 124.564 392.707 M 127.631 392.702 C 126.688 393.646, 126.869 399, 127.845 399 C 128.795 399, 132 395.688, 132 394.706 C 132 393.691, 128.327 392.006, 127.631 392.702 M 369.229 395.014 C 367.979 396.027, 367.357 397.102, 367.845 397.404 C 368.758 397.969, 372.647 394.311, 371.911 393.580 C 371.685 393.356, 370.478 394.001, 369.229 395.014 M 130.496 398.004 C 127.664 401.133, 129.733 404.418, 135.805 406.435 C 138.523 407.338, 142.491 409.397, 144.623 411.010 C 149.322 414.567, 150 414.656, 150 411.723 C 150 408.410, 147.536 405.391, 140.770 400.410 C 133.993 395.421, 133.037 395.197, 130.496 398.004 M 361.750 398.689 C 360.788 398.941, 360 399.522, 360 399.980 C 360 400.438, 360.900 400.577, 362 400.290 C 363.100 400.002, 364 399.369, 364 398.883 C 364 398.398, 363.887 398.052, 363.750 398.116 C 363.613 398.180, 362.712 398.438, 361.750 398.689 M 152 446.347 C 152 446.603, 154.137 448.340, 156.750 450.208 C 165.327 456.339, 166.597 456.439, 158.500 450.346 C 153.814 446.820, 152 445.704, 152 446.347 M 165 455.430 C 165 455.705, 165.900 456.411, 167 457 C 168.100 457.589, 169 457.845, 169 457.570 C 169 457.295, 168.100 456.589, 167 456 C 165.900 455.411, 165 455.155, 165 455.430 M 170 458.430 C 170 458.705, 170.900 459.411, 172 460 C 173.100 460.589, 174 460.845, 174 460.570 C 174 460.295, 173.100 459.589, 172 459 C 170.900 458.411, 170 458.155, 170 458.430 M 0.425 491 C 0.425 502.825, 0.569 507.663, 0.746 501.750 C 0.923 495.837, 0.923 486.163, 0.746 480.250 C 0.569 474.337, 0.425 479.175, 0.425 491" stroke="none" fill="black" fill-rule="evenodd"/>
</svg>