<svg xmlns="http://www.w3.org/2000/svg" width="100" height="100" viewBox="0 0 100 100" version="1.1">
	<path d="M 0 25.915 L 0 51.829 7.717 52.553 C 20.439 53.745, 41.479 51.811, 45.943 49.039 C 47.132 48.301, 47.171 47.670, 46.161 45.455 C 45.111 43.149, 45.190 42.575, 46.718 41.415 C 49.123 39.591, 49.328 39.646, 50.635 42.462 C 51.607 44.560, 51.464 45.123, 49.635 46.402 C 45.845 49.053, 50.034 48.179, 58.191 44.618 C 68.169 40.261, 76.911 33.957, 85.286 25.080 C 91.477 18.516, 92.201 18.037, 94.260 19.134 C 96.290 20.216, 96.371 20.172, 95.128 18.664 C 94.373 17.749, 92.910 17, 91.878 17 C 89.814 17, 89.565 16.236, 90.927 14.083 C 91.452 13.255, 91.456 11.698, 90.937 10.333 C 90.139 8.236, 90.330 8, 92.825 8 C 94.351 8, 96.159 7.441, 96.842 6.758 C 97.830 5.770, 98.289 5.820, 99.092 7.008 C 100.431 8.987, 99.459 19.098, 97.834 20.103 C 96.862 20.703, 96.969 21.051, 98.278 21.553 C 99.778 22.129, 99.998 23.781, 99.985 34.357 L 99.970 46.500 94.904 50.216 C 92.118 52.260, 85.037 56.310, 79.169 59.216 C 66.808 65.338, 67.126 65.140, 68.737 65.716 C 69.417 65.959, 70.928 66.931, 72.095 67.876 C 74.216 69.593, 74.214 69.597, 68.774 75.259 C 61.623 82.701, 59.413 83.500, 51.848 81.377 C 46.902 79.990, 44.833 79.898, 39.270 80.820 C 33.045 81.851, 32.218 81.756, 26.556 79.365 C 12.420 73.396, 13.387 73.504, 6.319 77.092 L 0 80.299 0 90.159 L 0 100.018 50.219 99.759 L 100.439 99.500 100.712 49.750 L 100.985 0 88.870 0 C 79.298 0, 76.970 0.262, 77.780 1.250 C 78.522 2.155, 78.159 2.983, 76.469 4.247 C 74.223 5.926, 74.108 5.916, 73.499 3.997 C 73.150 2.898, 72.419 2, 71.874 2 C 71.328 2, 71.160 1.550, 71.500 1 C 71.908 0.340, 59.844 -0, 36.059 -0 L 0 0 0 25.915 M 0.436 26.500 C 0.436 40.800, 0.577 46.511, 0.748 39.191 C 0.919 31.871, 0.918 20.171, 0.747 13.191 C 0.575 6.211, 0.435 12.200, 0.436 26.500 M 80.614 9.540 C 78.928 10.773, 78.912 11.037, 80.398 13.158 C 81.279 14.416, 82 14.895, 82 14.223 C 82 13.550, 82.675 13, 83.500 13 C 85.307 13, 85.362 12.059, 83.685 9.855 C 82.623 8.459, 82.158 8.411, 80.614 9.540 M 32.696 11.349 C 31.886 13.462, 34.310 16.279, 36.566 15.845 C 37.860 15.596, 38.500 14.649, 38.500 12.986 C 38.500 11.047, 37.923 10.433, 35.878 10.196 C 34.280 10.011, 33.037 10.461, 32.696 11.349 M 68.960 16.548 C 68.264 17.387, 66.750 17.945, 65.597 17.787 C 64.151 17.589, 63.617 17.966, 63.877 19 C 64.415 21.140, 64.338 22.261, 63.512 24.250 C 62.918 25.682, 63.315 26, 65.693 26 C 67.292 26, 69.125 26.525, 69.767 27.167 C 70.657 28.057, 71.096 27.878, 71.612 26.417 C 71.985 25.363, 73.200 23.767, 74.311 22.870 C 76.332 21.241, 76.332 21.240, 74.166 20.553 C 72.960 20.170, 72 19.035, 72 17.992 C 72 15.423, 70.489 14.705, 68.960 16.548 M 51.822 26.388 C 50.542 27.324, 50.453 27.898, 51.388 29.178 C 52.324 30.458, 52.898 30.547, 54.178 29.612 C 55.458 28.676, 55.547 28.102, 54.612 26.822 C 53.676 25.542, 53.102 25.453, 51.822 26.388 M 28.480 37.032 C 28.092 37.660, 28.245 38.645, 28.820 39.220 C 30.164 40.564, 33.297 39.392, 32.750 37.749 C 32.194 36.078, 29.364 35.602, 28.480 37.032 M 87.180 62.250 C 87.390 63.727, 88.187 64.500, 89.500 64.500 C 90.813 64.500, 91.610 63.727, 91.820 62.250 C 92.082 60.404, 91.665 60, 89.500 60 C 87.335 60, 86.918 60.404, 87.180 62.250 M 0.370 90 C 0.370 95.775, 0.535 98.138, 0.737 95.250 C 0.939 92.362, 0.939 87.638, 0.737 84.750 C 0.535 81.862, 0.370 84.225, 0.370 90" stroke="none" fill="black" fill-rule="evenodd"/>
</svg>